<?xml version="1.0" encoding="UTF-8" standalone="no"?>
<svg
   width="156.05099"
   height="157.265"
   viewBox="0 0 156.05099 157.265"
   id="svg1"
   xmlns="http://www.w3.org/2000/svg"
   xmlns:svg="http://www.w3.org/2000/svg">
  <path
     fill="#ffd400"
     d="M 78.023,0 C 34.931,0 0,35.207 0,78.63 c 0,22.796 9.496,43.485 24.878,57.846 -0.423,-0.627 19.977,20.394 53.145,20.789 43.093,0 78.028,-35.205 78.028,-78.635 C 156.051,35.2 121.115,0 78.023,0 Z M 10.828,44.103 c 2.903,-5.934 7.376,-9.709 9.988,-8.434 2.612,1.275 2.378,7.122 -0.525,13.057 -2.904,5.936 -7.378,9.711 -9.988,8.434 -2.612,-1.273 -2.378,-7.123 0.525,-13.057 z m 9.403,68.612 c -2.838,1.223 -7.41,-3.043 -10.214,-9.536 -2.802,-6.491 -2.772,-12.744 0.065,-13.969 2.842,-1.227 7.414,3.045 10.214,9.533 2.8,6.492 2.772,12.748 -0.065,13.972 z M 130.168,74.402 c 0.551,7.553 -4.416,14.076 -11.097,14.56 -6.682,0.488 -12.544,-5.238 -13.095,-12.793 -0.549,-7.555 4.417,-14.078 11.099,-14.567 6.68,-0.485 12.539,5.241 13.093,12.801 z M 99.137,23.548 c 3.599,-3.773 10.642,-2.903 15.72,1.94 5.08,4.844 6.282,11.831 2.678,15.608 -3.599,3.768 -10.637,2.901 -15.72,-1.943 C 96.737,34.307 95.534,27.321 99.137,23.548 Z M 25.21,75.602 c 0,-7.576 5.638,-13.716 12.601,-13.716 6.963,0 12.61,6.14 12.61,13.716 0,7.576 -5.648,13.717 -12.61,13.717 -6.962,0 -12.601,-6.141 -12.601,-13.717 z m 31.697,53.98 c -3.007,4.152 -10.584,3.8 -16.927,-0.788 -6.342,-4.591 -9.049,-11.676 -6.037,-15.829 3.002,-4.147 10.581,-3.801 16.923,0.79 6.343,4.589 9.05,11.675 6.041,15.827 z M 55.406,39.221 c -6.277,3.947 -13.738,3.364 -16.671,-1.294 -2.931,-4.66 -0.22,-11.637 6.057,-15.582 6.272,-3.942 13.738,-3.362 16.669,1.296 2.927,4.661 0.222,11.638 -6.055,15.58 z m 22.231,113.737 c -6.484,-0.246 -11.643,-2.997 -11.52,-6.143 0.113,-3.15 5.469,-5.504 11.952,-5.258 6.484,0.245 11.642,2.996 11.52,6.146 -0.117,3.148 -5.469,5.5 -11.952,5.255 z m -0.413,-36.207 c -7.049,0 -12.766,-6.141 -12.766,-13.714 0,-7.573 5.717,-13.719 12.766,-13.719 7.049,0 12.765,6.141 12.765,13.719 0,7.578 -5.714,13.714 -12.765,13.714 z m 0,-48.168 c -7.049,0 -12.766,-6.141 -12.766,-13.717 0,-7.576 5.717,-13.717 12.766,-13.717 7.049,0 12.765,6.143 12.765,13.717 0,7.574 -5.714,13.717 -12.765,13.717 z m 0.638,-54.23 c -7.577,0 -13.724,-2.354 -13.724,-5.262 0,-2.908 6.146,-5.262 13.724,-5.262 7.578,0 13.724,2.354 13.724,5.262 0,2.908 -6.144,5.262 -13.724,5.262 z m 18.155,118.471 c -3.125,-3.832 -0.954,-10.77 4.849,-15.5 5.802,-4.728 13.037,-5.454 16.167,-1.625 3.128,3.834 0.953,10.773 -4.85,15.502 -5.802,4.728 -13.042,5.456 -16.166,1.623 z m 25.587,7.71 c -6.38,4.534 -12.263,7.207 -13.137,5.977 -0.879,-1.231 3.585,-5.906 9.971,-10.44 6.384,-4.534 12.267,-7.207 13.141,-5.977 0.874,1.233 -3.59,5.906 -9.975,10.44 z m -83.091,2.037 c -6.834,-3.814 -11.775,-7.979 -11.039,-9.297 0.735,-1.322 6.874,0.701 13.71,4.52 6.837,3.818 11.776,7.983 11.041,9.302 -0.738,1.317 -6.876,-0.706 -13.712,-4.525 z m 106.322,-36.483 c -3.462,6.105 -8.996,9.512 -12.355,7.609 -3.364,-1.904 -3.284,-8.4 0.179,-14.508 3.462,-6.104 8.996,-9.509 12.36,-7.605 3.359,1.903 3.274,8.396 -0.184,14.503 z m 2.266,-44.513 c -3.327,1.971 -8.917,-1.325 -12.502,-7.366 -3.58,-6.038 -3.787,-12.528 -0.461,-14.497 3.326,-1.971 8.922,1.327 12.503,7.369 3.575,6.037 3.786,12.527 0.46,14.494 z"
     id="path1" />
</svg>
