<svg xmlns="http://www.w3.org/2000/svg" id="Calque_2" data-name="Calque 2" width="465.79" height="378.189" viewBox="0 0 465.79 378.189">
  <defs>
    <style>
      .cls-1 {fill: none;}
      .cls-2 {fill: #ffd400;}
      .cls-3 {fill: #000000;}
      @media (prefers-color-scheme: dark) {
        .cls-1 {fill: none;}
        .cls-2 {fill: #ffd400;}
        .cls-3 {fill: #ffffff;}
      }
    </style>
  </defs>
  <g id="Layer_1" data-name="Layer 1">
    <path class="cls-2" d="m300.786,156.943c-43.092,0-78.023,35.207-78.023,78.63,0,22.796,9.496,43.485,24.878,57.846-.423-.627,19.977,20.394,53.145,20.789,43.093,0,78.028-35.205,78.028-78.635s-34.936-78.63-78.028-78.63Zm-67.195,44.103c2.903-5.934,7.376-9.709,9.988-8.434s2.378,7.122-.525,13.057c-2.904,5.936-7.378,9.711-9.988,8.434-2.612-1.273-2.378-7.123.525-13.057Zm9.403,68.612c-2.838,1.223-7.41-3.043-10.214-9.536-2.802-6.491-2.772-12.744.065-13.969,2.842-1.227,7.414,3.045,10.214,9.533,2.8,6.492,2.772,12.748-.065,13.972Zm109.937-38.313c.551,7.553-4.416,14.076-11.097,14.56-6.682.488-12.544-5.238-13.095-12.793-.549-7.555,4.417-14.078,11.099-14.567,6.68-.485,12.539,5.241,13.093,12.801Zm-31.031-50.854c3.599-3.773,10.642-2.903,15.72,1.94,5.08,4.844,6.282,11.831,2.678,15.608-3.599,3.768-10.637,2.901-15.72-1.943-5.078-4.846-6.281-11.832-2.678-15.605Zm-73.927,52.054c0-7.576,5.638-13.716,12.601-13.716s12.61,6.14,12.61,13.716-5.648,13.717-12.61,13.717-12.601-6.141-12.601-13.717Zm31.697,53.98c-3.007,4.152-10.584,3.8-16.927-.788-6.342-4.591-9.049-11.676-6.037-15.829,3.002-4.147,10.581-3.801,16.923.79,6.343,4.589,9.05,11.675,6.041,15.827Zm-1.501-90.361c-6.277,3.947-13.738,3.364-16.671-1.294-2.931-4.66-.22-11.637,6.057-15.582,6.272-3.942,13.738-3.362,16.669,1.296,2.927,4.661.222,11.638-6.055,15.58Zm22.231,113.737c-6.484-.246-11.643-2.997-11.52-6.143.113-3.15,5.469-5.504,11.952-5.258,6.484.245,11.642,2.996,11.52,6.146-.117,3.148-5.469,5.5-11.952,5.255Zm-.413-36.207c-7.049,0-12.766-6.141-12.766-13.714s5.717-13.719,12.766-13.719,12.765,6.141,12.765,13.719-5.714,13.714-12.765,13.714Zm0-48.168c-7.049,0-12.766-6.141-12.766-13.717s5.717-13.717,12.766-13.717,12.765,6.143,12.765,13.717-5.714,13.717-12.765,13.717Zm.638-54.23c-7.577,0-13.724-2.354-13.724-5.262s6.146-5.262,13.724-5.262,13.724,2.354,13.724,5.262-6.144,5.262-13.724,5.262Zm18.155,118.471c-3.125-3.832-.954-10.77,4.849-15.5,5.802-4.728,13.037-5.454,16.167-1.625,3.128,3.834.953,10.773-4.85,15.502-5.802,4.728-13.042,5.456-16.166,1.623Zm25.587,7.71c-6.38,4.534-12.263,7.207-13.137,5.977-.879-1.231,3.585-5.906,9.971-10.44,6.384-4.534,12.267-7.207,13.141-5.977.874,1.233-3.59,5.906-9.975,10.44Zm-83.091,2.037c-6.834-3.814-11.775-7.979-11.039-9.297.735-1.322,6.874.701,13.71,4.52,6.837,3.818,11.776,7.983,11.041,9.302-.738,1.317-6.876-.706-13.712-4.525Zm106.322-36.483c-3.462,6.105-8.996,9.512-12.355,7.609-3.364-1.904-3.284-8.4.179-14.508,3.462-6.104,8.996-9.509,12.36-7.605,3.359,1.903,3.274,8.396-.184,14.503Zm2.266-44.513c-3.327,1.971-8.917-1.325-12.502-7.366-3.58-6.038-3.787-12.528-.461-14.497,3.326-1.971,8.922,1.327,12.503,7.369,3.575,6.037,3.786,12.527.46,14.494Z"></path>

    <!--<g>
      <g>
        <g class="cls-3">
          <path d="m239.068,323.245l10.542-8.642-.77-.491c-.395-.249-.714-.446-.968-.583-.254-.142-.488-.251-.705-.331-.216-.084-.441-.143-.667-.176-.225-.032-.508-.068-.837-.103l-.202-.027,5.309-4.38,12.949,8.231-5.309,4.381c-.08-.228-.151-.42-.213-.58-.065-.164-.145-.31-.249-.441-.098-.131-.225-.258-.376-.39-.15-.127-.347-.271-.602-.431l-1.418-.901-10.543,8.646-5.942-3.782Z"></path>
          <path d="m254.006,331.994l11.014-13.277c.07-.094.132-.188.189-.286.057-.1.112-.198.164-.296.127-.23.225-.473.301-.725.075-.253.155-.53.238-.836l14.105,5.558-4.379,5.308-.08-.121c-.145-.22-.272-.398-.376-.539-.103-.142-.234-.267-.39-.381-.16-.112-.362-.228-.62-.348-.254-.122-.598-.268-1.033-.436l-3.872-1.527-1.043,1.24,3.913,1.544-2.809,3.373-3.918-1.543-.978,1.206,3.871,1.528c.451.175.812.314,1.094.415.278.101.536.169.776.2.239.033.483.045.731.033.245-.015.565-.044.954-.09l-4.402,5.3-13.451-5.3Z"></path>
          <path d="m273.256,339l9.438-17.283,12.126,2.253c.286.054.546.179.77.371.226.195.403.436.536.723.126.293.206.611.234.96.038.342-.005.708-.103,1.09-.118.37-.226.638-.314.794l-3.744,6.84c-.357.637-.851,1.19-1.476,1.664-.63.469-1.278.803-1.945,1.002l.112,4.49-6.596-1.227-.352-3.622-1.763,3.227-6.924-1.281Zm13.47-10.673l-1.649,2.995,1.268.234,1.65-2.995-1.268-.234Z"></path>
          <path d="m294.454,342.33l5.886-18.791,12.329-.157c.296-.004.573.068.837.212.253.145.475.352.661.605.18.264.32.559.418.894.1.333.133.697.109,1.09-.042.392-.095.671-.156.841l-2.339,7.442c-.226.692-.597,1.329-1.118,1.914-.525.589-1.095,1.042-1.715,1.364l.991,4.379-6.714.088-1.047-3.483-1.104,3.508-7.038.095Zm11.13-13.096l-1.034,3.258,1.284-.017,1.032-3.259-1.282.018Z"></path>
          <path d="m315.972,341.406l1.894-17.146c.009-.118.004-.23,0-.346-.011-.112-.019-.223-.023-.336-.024-.263-.076-.519-.151-.767-.076-.257-.159-.529-.258-.834l14.832-3.114-.733,6.843-.137-.061c-.243-.102-.445-.181-.61-.24-.164-.062-.344-.096-.536-.104-.192-.006-.427.01-.704.048-.282.04-.647.105-1.103.204l-4.078.855-.187,1.611,4.124-.864-.492,4.359-4.121.869-.155,1.546,4.073-.855c.476-.102.856-.188,1.142-.253.291-.073.546-.157.762-.258.216-.104.423-.231.625-.376.201-.151.45-.349.747-.602l-.762,6.85-14.146,2.971Z"></path>
          <path d="m336.075,336.589l-1.55-17.355c.014-.048,0-.122-.042-.226l-.07-.214c-.057-.219-.147-.431-.26-.637-.112-.203-.238-.446-.38-.733l-.099-.169,11.977-5.146c.267-.116.558-.159.859-.127.305.034.587.13.851.29.263.162.503.378.708.654.217.273.386.598.509.969.057.16.093.311.122.45.023.145.047.278.07.412l.306,3.492c.027.376-.01.832-.113,1.372-.1.541-.245,1.033-.446,1.485.192.244.361.493.518.754.154.258.276.529.365.815.028.108.057.216.085.315.023.102.042.199.051.301l.31,3.395c.038.515-.009,1.033-.141,1.569-.126.528-.31,1.025-.54,1.496-.234.461-.503.871-.813,1.229-.302.355-.621.602-.95.744l-11.327,4.863Zm5.272-16.355l.121,1.526,1.18-.504-.122-1.534-1.179.512Zm1.846,7.026l-.154-1.548-1.18.512.155,1.546,1.179-.51Z"></path>
          <path d="m359.971,301.589c.244-.172.513-.267.812-.291.296-.025.592.016.889.128.296.109.577.274.846.497.272.221.507.501.705.839.187.347.3.607.347.782l3.486,11.457c.141.472.202.981.187,1.526-.019.55-.093,1.075-.229,1.593-.132.517-.315.981-.545,1.396-.235.414-.493.719-.775.916l-7.606,5.328c-.254.184-.53.284-.827.31-.296.024-.592-.02-.888-.127-.3-.113-.578-.282-.841-.509-.264-.226-.493-.507-.696-.845-.196-.338-.315-.602-.347-.779l-3.481-11.463c-.145-.469-.207-.979-.188-1.523.015-.551.089-1.077.216-1.588.127-.513.31-.974.541-1.386.235-.414.498-.725.794-.931l7.602-5.331Zm-1.499,8.089l-1.052.737,2.189,7.244,1.052-.737-2.189-7.244Z"></path>
          <path d="m372.896,314.765l-9.673-17.148,3.65-3.988c.15-.053.403-.006.77.149.362.155.785.357,1.26.613.474.254.973.52,1.489.792.521.276,1.01.507,1.47.694l-2.686-4.77,4.754-5.197,9.674,17.151-3.602,3.938c-.137.042-.404-.026-.805-.198-.394-.174-.845-.388-1.343-.643-.498-.257-1.01-.518-1.536-.788-.527-.27-.977-.472-1.357-.607l2.69,4.808-4.754,5.193Z"></path>
          <path d="m387.513,298.111l-12.822-14.945,2.801-4.622c.136-.08.398-.08.783,0,.391.079.841.199,1.358.353.513.158,1.053.322,1.616.488.564.169,1.09.302,1.578.397l-3.566-4.157,3.651-6.024,12.821,14.946-2.762,4.56c-.127.067-.405.054-.827-.038-.423-.092-.907-.214-1.447-.368-.54-.156-1.09-.31-1.658-.475-.569-.158-1.053-.272-1.452-.329l3.575,4.19-3.649,6.023Z"></path>
          <path d="m398.379,278.796l-13.648-10.558c-.094-.065-.192-.126-.292-.178-.098-.05-.201-.103-.3-.155-.234-.117-.479-.207-.733-.273-.253-.065-.535-.139-.845-.213l5.073-14.286,5.454,4.195-.116.082c-.212.156-.391.29-.526.397-.137.108-.259.245-.367.404-.107.16-.216.371-.323.629-.113.259-.249.608-.404,1.049l-1.396,3.925,1.279.998,1.409-3.967,3.467,2.693-1.41,3.972,1.241.933,1.392-3.923c.163-.453.291-.822.38-1.106.089-.282.145-.543.174-.782.023-.24.027-.48.004-.728-.018-.249-.059-.566-.122-.948l5.45,4.216-4.839,13.623Z"></path>
        </g>
        <g class="cls-3">
          <g>
            <path class="cls-1" d="m110.715,86.718c-.505.089-1.081.141-1.726.16-.646.019-1.491.026-2.536.026h-8.054l5.649-19.82.104-.104v.052c.21-.698.54-1.36.993-1.987.453-.63.977-1.306,1.569-2.04.034-.035.061-.07.079-.102.017-.036.06-.09.131-.16h-17.259l-8.678,30.435c-.176.627-.463,1.231-.861,1.804-.404.576-.864,1.193-1.388,1.856l-.523.681h32.265l3.451-12.028c-.698.348-1.281.619-1.752.811-.469.19-.958.331-1.463.416Z"></path>
            <path class="cls-1" d="m56.723,86.904l3.87-13.649h5.018l-3.66,7.426c.418-.036,1.106-.157,2.067-.366.957-.212,2.046-.479,3.266-.813,1.22-.329,2.465-.696,3.74-1.095,1.272-.401,2.432-.813,3.476-1.231.871-.348,1.624-.792,2.248-1.334.628-.541,1.161-1.149,1.598-1.831.435-.679.8-1.402,1.096-2.169.298-.766.549-1.55.757-2.354.176-.766.263-1.324.263-1.672,0-.663-.103-1.299-.312-1.91-.211-.608-.499-1.148-.863-1.621-.367-.47-.81-.844-1.335-1.126-.521-.277-1.097-.417-1.724-.417h-21.44c-.802,0-1.656.192-2.563.578-.907.383-1.777.885-2.615,1.515-.836.627-1.568,1.341-2.196,2.145-.626.801-1.061,1.638-1.306,2.509l-6.065,21.231c-.141.383-.209.907-.209,1.569,0,.695.129,1.367.39,2.013.263.646.619,1.2,1.072,1.672.455.47.977.844,1.569,1.126.592.277,1.237.418,1.935.418h27.349l3.034-10.615h-18.459Z"></path>
            <path d="m116.599,82.353c-1.432.7-2.582,1.238-3.452,1.621-.873.385-1.64.672-2.3.862-.666.192-1.316.308-1.964.34-.643.036-1.455.052-2.43.052h-4.027l4.55-15.843v.052l.106-.105c.172-.697.468-1.322.889-1.882.416-.559.922-1.186,1.517-1.884.069-.065.288-.287.652-.653.366-.366.723-.739,1.075-1.123.208-.245.398-.456.573-.63.174-.173.279-.277.312-.315l-1.099-1.775h-22.485l-9.15,31.586c-.176.489-.427.985-.757,1.49-.333.505-.742,1.055-1.23,1.647l-1.845,2.499,3.256-11.336-1.358-1.727h-16.681l.367-1.203c.556-.068,1.481-.226,2.77-.47,1.288-.245,2.693-.55,4.21-.917,1.516-.364,3.04-.766,4.575-1.203,1.534-.435,2.842-.862,3.923-1.281,1.046-.382,1.934-.887,2.667-1.515.731-.629,1.349-1.324,1.855-2.09.505-.77.924-1.588,1.256-2.459.33-.872.618-1.76.862-2.666.208-.733.313-1.428.313-2.093,0-.975-.175-1.9-.521-2.77-.35-.874-.82-1.605-1.413-2.199l-.576-.573c-.522-.803-1.194-1.457-2.014-1.961-.819-.505-1.751-.759-2.796-.759h-21.44c-.942,0-1.953.228-3.032.681-1.083.452-2.118,1.053-3.113,1.805-.994.749-1.864,1.602-2.614,2.56-.752.961-1.264,1.946-1.544,2.956l-6.012,21.02h-.052c-.173.524-.261,1.257-.261,2.199,0,1.255.279,2.396.837,3.425.556,1.029,1.305,1.837,2.248,2.432l.626.627c1.221,1.219,2.719,1.83,4.498,1.83h28.499l.335-1.167,1.598,1.167h36.397l4.654-16.315-1.255-1.936Zm-44.45,15.166h-27.349c-.698,0-1.343-.141-1.935-.418-.592-.282-1.115-.656-1.569-1.126-.454-.472-.809-1.026-1.072-1.672-.261-.646-.39-1.318-.39-2.013,0-.663.068-1.186.209-1.569l6.065-21.231c.246-.871.68-1.707,1.306-2.509.628-.803,1.36-1.518,2.196-2.145.837-.63,1.708-1.132,2.615-1.515.908-.385,1.762-.578,2.563-.578h21.44c.627,0,1.203.141,1.724.417.525.282.969.656,1.335,1.126.364.473.652,1.012.863,1.621.209.611.312,1.248.312,1.91,0,.348-.087.907-.263,1.672-.207.803-.459,1.588-.757,2.354-.296.766-.661,1.49-1.096,2.169-.437.681-.97,1.29-1.598,1.831-.624.542-1.378.986-2.248,1.334-1.044.418-2.204.83-3.476,1.231-1.275.399-2.519.766-3.74,1.095-1.219.334-2.309.601-3.266.813-.961.209-1.649.331-2.067.366l3.66-7.426h-5.018l-3.87,13.649h18.459l-3.034,10.615Zm38.33,0h-32.265l.523-.681c.524-.663.984-1.28,1.388-1.856.398-.573.685-1.177.861-1.804l8.678-30.435h17.259c-.071.07-.114.124-.131.16-.018.033-.045.068-.079.102-.592.733-1.116,1.41-1.569,2.04-.452.627-.782,1.289-.993,1.987v-.052l-.104.104-5.649,19.82h8.054c1.045,0,1.89-.007,2.536-.026.645-.019,1.221-.07,1.726-.16.504-.085.994-.226,1.463-.416.471-.192,1.055-.463,1.752-.811l-3.451,12.028Z"></path>
            <path d="m117.381,92.29c0-.942.314-2.199.314-2.199l8.368-29.021h37.546l1.36,1.727-8.576,29.859c-.279,1.01-.794,1.995-1.543,2.953-.749.961-1.613,1.804-2.587,2.537-.98.733-1.998,1.325-3.059,1.778-1.065.451-2.031.679-2.903.679h-20.707c-1.779,0-3.278-.611-4.497-1.83l-.629-.627c-.94-.595-1.689-1.402-2.248-2.432-.559-1.029-.837-2.17-.837-3.425Zm27.35,5.229c.767,0,1.603-.193,2.509-.578.907-.381,1.769-.888,2.59-1.513.82-.63,1.55-1.354,2.197-2.171.646-.822,1.089-1.665,1.332-2.537l8.001-27.977h-15.531l-6.903,24.161h-2.979l6.901-24.161h-15.583l-8,27.977c-.14.383-.209.907-.209,1.569,0,.695.132,1.367.393,2.013.261.646.618,1.2,1.07,1.672.453.47.976.844,1.571,1.126.591.277,1.236.418,1.934.418h20.707Z"></path>
            <path d="m156.757,99.192l9.464-32.944v-.366c0-.315-.051-.714-.155-1.203,0-.036-.009-.061-.026-.08-.016-.016-.026-.062-.026-.13v-.209c0-.173-.018-.277-.054-.314l-.154-.576-.264-2.299h30.856c1.147,0,2.202.287,3.161.862.956.575,1.733,1.317,2.326,2.225l.526.47c.592.591,1.07,1.306,1.435,2.142.364.836.548,1.726.548,2.668,0,.385-.016.724-.051,1.02-.033.295-.104.62-.207.968l-1.776,6.22c-.178.7-.545,1.466-1.102,2.302-.557.837-1.167,1.602-1.829,2.303.173.489.314.968.418,1.438.104.47.157.949.157,1.438,0,.592-.068,1.097-.207,1.518l-1.727,6.065c-.314,1.045-.836,2.04-1.569,2.979-.73.942-1.578,1.781-2.537,2.509-.959.735-1.958,1.318-3.009,1.752-1.045.437-2.036.656-2.978.656h-29.441l-1.779-1.412Zm29.653-1.672c.801,0,1.653-.183,2.56-.55.904-.366,1.762-.865,2.562-1.49.802-.629,1.517-1.352,2.145-2.17.627-.82,1.081-1.682,1.358-2.589l1.727-6.014c.105-.348.157-.733.157-1.151,0-.592-.08-1.168-.235-1.727-.16-.557-.342-1.114-.549-1.673.696-.627,1.357-1.369,1.988-2.222.625-.853,1.025-1.595,1.203-2.222l1.775-6.223c.142-.453.21-.975.21-1.569,0-.695-.13-1.358-.391-1.987-.261-.625-.622-1.174-1.073-1.647-.454-.47-.978-.844-1.567-1.126-.595-.277-1.223-.417-1.881-.417h-28.975l.054.314c.036.174.059.332.08.47.017.142.044.283.079.419.069.385.131.723.182,1.019.052.299.079.601.079.916v.418c0,.209-.017.35-.055.418l-8.888,30.802h27.456Zm-8.002-13.493h2.979l-.785,2.878h-2.978l.784-2.878Zm5.281-7.842h-2.981l.782-2.826h2.983l-.785,2.826Z"></path>
          </g>
          <g class="cls-3">
            <path d="m254.335,61.07c1.114,0,2.152.27,3.11.811.959.54,1.734,1.266,2.325,2.17l.579.576c.629.591,1.112,1.315,1.461,2.17.348.853.527,1.753.527,2.692,0,.872-.367,2.091-.367,2.091l-5.963,21.076c-.277,1.01-.788,1.995-1.546,2.953-.741.961-1.605,1.804-2.583,2.537s-2.002,1.325-3.06,1.778c-1.066.451-2.029.679-2.903.679h-29.387l-1.414-1.412h-.367l9.467-32.944v-.263c0-.484-.09-1.168-.264-2.039-.033-.033-.051-.084-.051-.155-.033-.036-.08-.165-.133-.395-.051-.226-.104-.487-.154-.785-.053-.296-.099-.583-.133-.86-.032-.281-.051-.507-.051-.681h30.904Zm0,1.673h-28.97c.034.102.086.333.156.681.107.489.192.939.264,1.358.07.418.103.822.103,1.203,0,.418-.02.664-.053.732l-8.889,30.802h27.396c.77,0,1.606-.193,2.513-.578.907-.381,1.772-.888,2.589-1.513.817-.63,1.552-1.354,2.2-2.171.643-.822,1.09-1.665,1.333-2.537l6.062-21.231c.141-.382.216-.888.216-1.518,0-.695-.131-1.367-.394-2.013-.264-.646-.621-1.2-1.075-1.672-.452-.47-.974-.844-1.566-1.126-.596-.277-1.221-.417-1.884-.417Zm-14.85,10.615h2.927l-3.866,13.545h-2.933l3.872-13.545Z"></path>
            <path d="m297.635,77.439c-.385-.173-.705-.324-.968-.446-.264-.122-.551-.226-.865-.312-.314-.087-.681-.148-1.099-.184-.418-.035-.939-.052-1.564-.052l-2.405,8.523c.695-.174,1.489-.453,2.376-.836.889-.382,2.12-.975,3.684-1.778l1.259,1.936-4.656,16.315h-35.246l-1.41-1.412h-.365l9.358-32.577c.032-.174.061-.334.08-.472.015-.139.028-.261.028-.364,0-.315-.089-.907-.263-1.78,0-.068-.024-.243-.08-.521-.053-.28-.104-.583-.155-.917-.052-.329-.1-.634-.132-.914-.033-.279-.051-.472-.051-.575h37.755l1.357,1.727-4.6,15.896-1.775-1.099c-.076-.033-.118-.061-.133-.077-.023-.017-.065-.044-.131-.078Zm-30.275-10.406l-8.791,30.487h32.165l3.396-12.028c-.7.348-1.278.619-1.753.811-.47.19-.948.331-1.437.416-.489.089-1.066.141-1.725.16-.663.019-1.536.026-2.617.026h-9.358l.779-2.878h9.42l2.194-7.686h-9.363l.841-2.981h9.358c1.043,0,1.875.019,2.48.054.611.033,1.137.094,1.569.181.438.087.826.218,1.179.393.349.176.785.401,1.307.681l.212.157,3.452-12.081h-33.63c.038.173.071.34.109.498.032.155.065.305.102.444.175.871.264,1.567.264,2.093,0,.418-.051.836-.154,1.254Z"></path>
          </g>
          <g class="cls-3">
            <path d="m79.262,132.117l3.869-13.702s.366-1.22.366-2.091c0-.939-.175-1.837-.522-2.692-.349-.854-.837-1.576-1.465-2.17l-.575-.576c-.594-.907-1.369-1.631-2.327-2.171-.959-.54-1.997-.811-3.11-.811h-28.66l-10.979,38.122,1.778,1.414h18.719l2.04-7.374h10.773c.905,0,1.891-.225,2.954-.681,1.064-.451,2.076-1.045,3.033-1.775.959-.735,1.812-1.579,2.562-2.538.749-.958,1.262-1.942,1.543-2.955Zm-3.034-1.935c-.246.873-.679,1.719-1.308,2.537-.627.817-1.351,1.542-2.17,2.168-.82.628-1.682,1.135-2.59,1.52-.905.383-1.757.573-2.562.573h-11.869l-2.091,7.377h-15.585l9.989-34.777h27.456c.66,0,1.288.139,1.88.418.591.28,1.116.654,1.571,1.123.452.47.811,1.028,1.07,1.672.262.646.393,1.315.393,2.016,0,.627-.071,1.132-.211,1.515l-3.972,13.857Z"></path>
            <polygon points="58.867 126.366 61.847 126.366 63.572 120.193 60.593 120.193 58.867 126.366"></polygon>
            <path d="m107.082,108.219l.103-.315h-20.917c0,.106.019.299.053.576.034.28.079.585.13.916.054.329.104.635.157.917.053.277.079.451.079.521.071.277.121.531.157.756.034.23.052.376.052.446v.052l-9.671,33.938,1.776,1.414h18.719l10.826-37.809-1.463-1.412Zm-12.08,36.137h-15.584l9.098-31.798c.037-.068.053-.245.053-.521,0-.489-.069-.996-.208-1.517-.038-.137-.069-.287-.105-.444-.036-.157-.07-.322-.103-.496h16.785l-9.934,34.777Z"></path>
            <path d="m141.698,132.065h-16.68l.363-1.203c.56-.07,1.483-.225,2.774-.47,1.289-.244,2.692-.549,4.209-.916,1.517-.366,3.042-.768,4.576-1.203,1.534-.437,2.84-.864,3.922-1.28,1.046-.383,1.936-.89,2.666-1.518.734-.627,1.351-1.327,1.857-2.093.505-.766.923-1.583,1.253-2.457.332-.871.621-1.76.863-2.666.211-.733.315-1.429.315-2.093,0-.977-.174-1.898-.523-2.772-.347-.869-.819-1.603-1.412-2.194l-.575-.576c-.522-.801-1.193-1.455-2.014-1.961-.819-.505-1.752-.759-2.799-.759h-21.439c-.94,0-1.954.228-3.032.679-1.081.456-2.119,1.057-3.111,1.806-.995.749-1.866,1.602-2.615,2.564-.75.958-1.266,1.943-1.544,2.95l-6.012,21.025h-.053c-.175.523-.262,1.254-.262,2.196,0,1.252.278,2.399.836,3.428.56,1.027,1.31,1.837,2.25,2.429l.626.629c1.22,1.217,2.721,1.83,4.497,1.83h28.499l3.923-13.651-1.36-1.724Zm-5.281,12.291h-27.35c-.697,0-1.343-.141-1.936-.42-.593-.28-1.116-.656-1.568-1.126-.453-.47-.81-1.026-1.071-1.672-.261-.644-.394-1.315-.394-2.014,0-.664.069-1.186.208-1.569l6.067-21.231c.244-.872.68-1.708,1.308-2.509.627-.801,1.359-1.518,2.195-2.145.836-.629,1.709-1.133,2.616-1.518.906-.38,1.76-.573,2.562-.573h21.439c.629,0,1.204.139,1.728.418.521.28.965.654,1.331,1.123.368.47.656,1.012.864,1.621.209.611.313,1.25.313,1.908,0,.352-.086.909-.261,1.675-.207.803-.463,1.588-.758,2.354-.296.768-.663,1.491-1.1,2.171-.433.678-.965,1.289-1.594,1.829-.627.541-1.377.987-2.247,1.334-1.048.419-2.207.828-3.478,1.229-1.274.401-2.52.768-3.738,1.097-1.221.332-2.312.601-3.27.811-.96.209-1.647.331-2.066.366l3.662-7.426h-5.02l-3.871,13.649h18.459l-3.032,10.618Z"></path>
            <path d="m265.194,129.495c-1.593.813-2.838,1.415-3.74,1.802-.901.39-1.704.674-2.414.848l2.443-8.645c.634,0,1.164.019,1.592.055.423.035.795.096,1.113.185.315.089.606.193.87.317.272.124.596.275.986.452.07.035.112.064.127.08.023.019.065.045.136.08l1.805,1.116,4.669-16.129-1.381-1.75h-38.3c0,.106.019.301.056.585.033.282.08.592.133.928.051.336.107.646.16.928.051.282.074.461.074.531.179.883.268,1.484.268,1.804,0,.105-.004.229-.023.371-.019.141-.046.301-.084.477l-9.496,33.048,1.81,1.431h35.749l4.722-16.548-1.273-1.964Zm-6.154,15.382h-32.62l8.913-30.923c.103-.426.159-.851.159-1.273,0-.532-.094-1.241-.268-2.122-.032-.143-.07-.294-.104-.451-.036-.16-.074-.326-.107-.505h34.104l-3.499,12.253-.213-.16c-.53-.282-.972-.512-1.324-.689-.353-.176-.752-.308-1.193-.397-.441-.089-.973-.15-1.594-.187-.614-.036-1.455-.052-2.518-.052h-9.495l-.85,3.023h9.494l-2.227,7.797h-9.547l-.798,2.917h9.495c1.099,0,1.983-.009,2.654-.025.672-.019,1.255-.073,1.753-.16.494-.087.977-.228,1.457-.425.478-.193,1.07-.47,1.774-.822l-3.447,12.201Z"></path>
            <path d="m225.841,129.19c-1.428.695-2.579,1.235-3.448,1.619-.873.383-1.64.674-2.303.864-.662.19-1.315.306-1.958.338-.649.036-1.461.054-2.434.054h-4.026l4.547-15.847v.054l.103-.106c.174-.696.47-1.322.893-1.882.418-.557.921-1.187,1.517-1.881.071-.071.287-.287.652-.653.367-.367.725-.743,1.072-1.125.211-.242.399-.454.573-.628.173-.173.282-.279.314-.314l-1.099-1.778h-22.483l-.326,1.124-.727-1.124h-21.911l-1.884,1.727-1.357-1.727h-19.036l-10.982,38.122,1.78,1.414h18.719l1.934-6.904,2.408,5.49,1.673,1.414h54.39l4.65-16.317-1.254-1.933Zm-58.363,15.166l-4.862-11.403-3.296,11.403h-15.582l9.988-34.777h15.585l-2.615,9.204.103.052,8.786-9.256h17.203l-16.839,18.041,6.905,16.735h-15.376Zm17.865.003l-6.098-14.751,17.727-18.976-8.363,28.856c-.174.489-.427.986-.757,1.492-.333.504-.742,1.055-1.23,1.646l-1.278,1.732Zm34.382-.003h-32.265l.521-.681c.524-.665.984-1.283,1.386-1.858.402-.575.688-1.177.865-1.804l8.68-30.433h17.255c-.07.071-.112.123-.131.155-.019.038-.043.07-.076.106-.596.731-1.118,1.413-1.57,2.042-.455.627-.788,1.287-.996,1.985v-.052l-.104.104-5.646,19.82h8.052c1.048,0,1.889-.007,2.538-.029.643-.014,1.217-.068,1.725-.154.507-.084.995-.226,1.461-.418.474-.192,1.057-.46,1.757-.811l-3.452,12.03Z"></path>
            <polygon points="288.901 123.017 291.88 123.017 292.664 120.193 289.686 120.193 288.901 123.017"></polygon>
            <path d="m304.696,142.524c.728-.94,1.25-1.936,1.564-2.981l1.725-6.068c.141-.416.211-.921.211-1.517,0-.483-.052-.963-.16-1.438-.099-.47-.24-.949-.418-1.438.667-.696,1.273-1.462,1.833-2.297.559-.836.925-1.605,1.099-2.303l1.777-6.222c.102-.348.173-.67.211-.968.032-.293.051-.634.051-1.019,0-.942-.184-1.83-.549-2.666-.367-.836-.847-1.55-1.438-2.145l-.521-.47c-.591-.907-1.367-1.647-2.33-2.223-.959-.576-2.011-.865-3.162-.865h-30.853l.264,2.3.154.578c.034.035.053.139.053.312v.209c0,.07.009.112.027.131.014.019.023.042.023.078.108.489.16.89.16,1.205v.364l-9.468,32.944,1.78,1.414h29.44c.939,0,1.931-.218,2.983-.655,1.043-.437,2.044-1.02,3.007-1.752.953-.733,1.8-1.57,2.537-2.509Zm-2.828-2.38c-.625.819-1.345,1.543-2.143,2.17-.804.628-1.658,1.126-2.565,1.49-.902.366-1.758.552-2.561.552h-27.451l8.884-30.802c.042-.071.057-.211.057-.418v-.419c0-.314-.029-.62-.08-.916-.051-.296-.112-.637-.184-1.019-.032-.141-.061-.279-.08-.418-.015-.141-.042-.296-.074-.473l-.053-.312h28.97c.663,0,1.288.139,1.884.418.592.28,1.113.654,1.564,1.123.456.47.813,1.02,1.077,1.649.258.625.389,1.29.389,1.987,0,.592-.07,1.114-.211,1.567l-1.776,6.223c-.173.629-.572,1.367-1.203,2.223-.625.855-1.286,1.597-1.987,2.225.213.557.395,1.113.551,1.672.159.557.234,1.134.234,1.727,0,.416-.051.799-.154,1.149l-1.725,6.014c-.281.905-.737,1.769-1.362,2.589Z"></path>
            <polygon points="285.814 133.738 288.797 133.738 289.578 130.862 286.599 130.862 285.814 133.738"></polygon>
            <polygon points="329.061 132.693 332.773 132.693 332.566 126.887 329.061 132.693"></polygon>
            <path d="m428.678,129.19c-1.434.695-2.579,1.235-3.453,1.619-.869.383-1.636.674-2.302.864-.658.19-1.315.306-1.959.338-.645.036-1.457.054-2.429.054h-4.027l4.549-15.847v.054l.104-.106c.173-.696.474-1.322.892-1.882.413-.557.921-1.187,1.514-1.881.069-.071.291-.287.657-.653.361-.367.724-.743,1.066-1.125.211-.242.403-.454.582-.628.17-.173.272-.279.307-.314l-1.096-1.778h-22.485l-9.152,31.584c-.173.489-.428.986-.756,1.492-.329.504-.743,1.055-1.231,1.646l-1.002,1.357,3.67-12.86-1.254-1.933c-1.428.695-2.584,1.235-3.453,1.619-.87.383-1.641.674-2.298.864-.662.19-1.319.306-1.964.338-.644.036-1.456.054-2.429.054h-4.031l4.553-15.847v.054l.103-.106c.174-.696.47-1.322.888-1.882.423-.557.927-1.187,1.518-1.881.07-.071.292-.287.657-.653.367-.367.72-.743,1.066-1.125.212-.242.405-.454.579-.628.173-.173.276-.279.315-.314l-1.099-1.778h-22.486l-9.152,31.584c-.174.489-.427.986-.756,1.492-.334.504-.743,1.055-1.231,1.646l-1.436,1.946-2.223-34.942-1.41-1.727h-19.404l-24.055,38.122,1.936,1.414h19.609l1.884-2.981h4.6l.159,1.567,1.725,1.414h17.36l-.033-.522.715.522h36.391l.244-.855,1.171.855h36.396l4.651-16.317-1.254-1.933Zm-95.797,15.166l-.263-2.984h-8.528l-1.878,2.984h-16.004l21.965-34.777h16.839l2.194,34.777h-14.325Zm19.605,0l.521-.681c.526-.665.986-1.283,1.391-1.858.4-.575.686-1.177.859-1.804l8.683-30.433h17.252c-.069.071-.112.123-.126.155-.019.038-.047.07-.08.106-.592.731-1.113,1.413-1.565,2.042-.454.627-.783,1.287-.995,1.985v-.052l-.103.104-5.647,19.82h8.053c1.044,0,1.889-.007,2.537-.029.644-.014,1.218-.068,1.725-.154.503-.084.991-.226,1.461-.418.474-.192,1.057-.46,1.753-.811l-3.448,12.03h-32.269Zm70.074,0h-32.267l.525-.681c.521-.665.982-1.283,1.386-1.858.399-.575.686-1.177.859-1.804l8.684-30.433h17.256c-.07.071-.112.123-.131.155-.02.038-.047.07-.08.106-.587.731-1.113,1.413-1.565,2.042-.456.627-.784,1.287-.997,1.985v-.052l-.101.104-5.648,19.82h8.054c1.047,0,1.888-.007,2.536-.029.643-.014,1.217-.068,1.724-.154.508-.084.992-.226,1.467-.418.47-.192,1.052-.46,1.747-.811l-3.448,12.03Z"></path>
          </g>
        </g>
        <g class="cls-3">
          <path d="m147.941,58.27l42.397.105s11.183-5.734,38.45-10.917c27.266-5.183,53.963-7.885,85.883-9.53-17.156-2.19-57.903-4.108-101.425,2.345-43.522,6.452-65.305,17.996-65.305,17.996Z"></path>
          <path d="m240.692,301.091c-9.25-8.636-16.621-19.294-21.497-31.258-4.14.435-74.917,7.292-109.87-27.791-45.719-45.89-33.881-92.458-33.881-92.458l-1.495-1.781-11.074-1.715c-18.094,77.961,25.597,125.102,67.388,145.307,33.585,16.238,80.362,21.61,115.002,13.523-3.109-2.426-4.702-4.019-4.573-3.828Z"></path>
          <path d="m212.529,235.607c0-10.951,1.967-21.438,5.557-31.127-4.037,1.312-34.816,10.46-68.168-2.098-43.051-16.209-45.018-53.093-45.018-53.093l-4.417-.609-1.204,2.753-13.057-.034c-2.598,21.193,6.537,40.751,19.336,55.857,23.71,27.985,57.062,41.085,107.127,33.628-.1-1.747-.155-3.506-.155-5.277Z"></path>
        </g>
      </g>
      <rect class="cls-1" width="465.79" height="378.189"></rect>
    </g>-->
  </g>
</svg>